{"asset":{"version":"2.0","generator":"Blockbench 4.10.1 glTF exporter"},"scenes":[{"nodes":[7],"name":"blockbench_export"}],"scene":0,"nodes":[{"translation":[0,-0.6015625,0],"name":"body","mesh":0},{"rotation":[0,0,-0.7071067811865475,0.7071067811865476],"translation":[-0.9031250000000002,-0.5249999999999999,1.5187500000000014],"name":"back_wheel_left","mesh":1},{"rotation":[0,0,-0.7071067811865475,0.7071067811865476],"translation":[-0.9031250000000002,-0.5249999999999999,-1.8499999999999999],"name":"front_wheel_left","mesh":2},{"rotation":[0,0,0.7071067811865475,0.7071067811865476],"translation":[0.9031250000000002,-0.5249999999999999,1.5187500000000014],"name":"back_wheel_right","mesh":3},{"rotation":[0,0,0.7071067811865475,0.7071067811865476],"translation":[0.9031250000000002,-0.5249999999999999,-1.8499999999999999],"name":"front_wheel_right","mesh":4},{"name":"wheels","children":[1,2,3,4]},{"name":"Car","children":[0,5]},{"children":[6]}],"bufferViews":[{"buffer":0,"byteOffset":0,"byteLength":2208,"target":34962,"byteStride":12},{"buffer":0,"byteOffset":2208,"byteLength":2208,"target":34962,"byteStride":12},{"buffer":0,"byteOffset":4416,"byteLength":1472,"target":34962,"byteStride":8},{"buffer":0,"byteOffset":5888,"byteLength":552,"target":34963},{"buffer":0,"byteOffset":6440,"byteLength":1440,"target":34962,"byteStride":12},{"buffer":0,"byteOffset":7880,"byteLength":1440,"target":34962,"byteStride":12},{"buffer":0,"byteOffset":9320,"byteLength":960,"target":34962,"byteStride":8},{"buffer":0,"byteOffset":10280,"byteLength":288,"target":34963},{"buffer":0,"byteOffset":10568,"byteLength":1440,"target":34962,"byteStride":12},{"buffer":0,"byteOffset":12008,"byteLength":1440,"target":34962,"byteStride":12},{"buffer":0,"byteOffset":13448,"byteLength":960,"target":34962,"byteStride":8},{"buffer":0,"byteOffset":14408,"byteLength":288,"target":34963},{"buffer":0,"byteOffset":14696,"byteLength":1440,"target":34962,"byteStride":12},{"buffer":0,"byteOffset":16136,"byteLength":1440,"target":34962,"byteStride":12},{"buffer":0,"byteOffset":17576,"byteLength":960,"target":34962,"byteStride":8},{"buffer":0,"byteOffset":18536,"byteLength":288,"target":34963},{"buffer":0,"byteOffset":18824,"byteLength":1440,"target":34962,"byteStride":12},{"buffer":0,"byteOffset":20264,"byteLength":1440,"target":34962,"byteStride":12},{"buffer":0,"byteOffset":21704,"byteLength":960,"target":34962,"byteStride":8},{"buffer":0,"byteOffset":22664,"byteLength":288,"target":34963}],"buffers":[{"byteLength":22952,"uri":"data:application/octet-stream;base64,"}],"accessors":[{"bufferView":0,"componentType":5126,"count":184,"max":[1.0625,1.5984375476837158,2.875],"min":[-1.0625,-0.0625,-2.875],"type":"VEC3"},{"bufferView":1,"componentType":5126,"count":184,"max":[1,1,1],"min":[-1,-1,-1],"type":"VEC3"},{"bufferView":2,"componentType":5126,"count":184,"max":[0.6328125,0.3726402521133423],"min":[0,0],"type":"VEC2"},{"bufferView":3,"componentType":5123,"count":276,"max":[183],"min":[0],"type":"SCALAR"},{"bufferView":4,"componentType":5126,"count":120,"max":[0.4375,0.1875,0.4375],"min":[-0.4375,-0.1875,-0.4375],"type":"VEC3"},{"bufferView":5,"componentType":5126,"count":120,"max":[1,1,1],"min":[-1,-1,-1],"type":"VEC3"},{"bufferView":6,"componentType":5126,"count":120,"max":[0.587918758392334,0.484375],"min":[0,0],"type":"VEC2"},{"bufferView":7,"componentType":5123,"count":144,"max":[119],"min":[0],"type":"SCALAR"},{"bufferView":8,"componentType":5126,"count":120,"max":[0.4375,0.1875,0.4375],"min":[-0.4375,-0.1875,-0.4375],"type":"VEC3"},{"bufferView":9,"componentType":5126,"count":120,"max":[1,1,1],"min":[-1,-1,-1],"type":"VEC3"},{"bufferView":10,"componentType":5126,"count":120,"max":[0.587918758392334,0.484375],"min":[0,0],"type":"VEC2"},{"bufferView":11,"componentType":5123,"count":144,"max":[119],"min":[0],"type":"SCALAR"},{"bufferView":12,"componentType":5126,"count":120,"max":[0.4375,0.1875,0.4375],"min":[-0.4375,-0.1875,-0.4375],"type":"VEC3"},{"bufferView":13,"componentType":5126,"count":120,"max":[1,1,1],"min":[-1,-1,-1],"type":"VEC3"},{"bufferView":14,"componentType":5126,"count":120,"max":[0.587918758392334,0.484375],"min":[0,0],"type":"VEC2"},{"bufferView":15,"componentType":5123,"count":144,"max":[119],"min":[0],"type":"SCALAR"},{"bufferView":16,"componentType":5126,"count":120,"max":[0.4375,0.1875,0.4375],"min":[-0.4375,-0.1875,-0.4375],"type":"VEC3"},{"bufferView":17,"componentType":5126,"count":120,"max":[1,1,1],"min":[-1,-1,-1],"type":"VEC3"},{"bufferView":18,"componentType":5126,"count":120,"max":[0.587918758392334,0.484375],"min":[0,0],"type":"VEC2"},{"bufferView":19,"componentType":5123,"count":144,"max":[119],"min":[0],"type":"SCALAR"}],"materials":[{"pbrMetallicRoughness":{"metallicFactor":0,"roughnessFactor":1,"baseColorTexture":{"index":0}},"alphaMode":"MASK","alphaCutoff":0.05,"doubleSided":true},{"pbrMetallicRoughness":{"metallicFactor":0,"roughnessFactor":1,"baseColorTexture":{"index":1}},"alphaMode":"MASK","alphaCutoff":0.05,"doubleSided":true}],"textures":[{"sampler":0,"source":0,"name":"volvo_s40"},{"sampler":1,"source":1,"name":"wheel"}],"samplers":[{"magFilter":9728,"minFilter":9728,"wrapS":33071,"wrapT":33071},{"magFilter":9728,"minFilter":9728,"wrapS":33071,"wrapT":33071}],"images":[{"mimeType":"image/png","uri":"data:image/png;base64,"},{"mimeType":"image/png","uri":"data:image/png;base64,"}],"meshes":[{"primitives":[{"mode":4,"attributes":{"POSITION":0,"NORMAL":1,"TEXCOORD_0":2},"indices":3,"material":0}]},{"primitives":[{"mode":4,"attributes":{"POSITION":4,"NORMAL":5,"TEXCOORD_0":6},"indices":7,"material":1}]},{"primitives":[{"mode":4,"attributes":{"POSITION":8,"NORMAL":9,"TEXCOORD_0":10},"indices":11,"material":1}]},{"primitives":[{"mode":4,"attributes":{"POSITION":12,"NORMAL":13,"TEXCOORD_0":14},"indices":15,"material":1}]},{"primitives":[{"mode":4,"attributes":{"POSITION":16,"NORMAL":17,"TEXCOORD_0":18},"indices":19,"material":1}]}]}